<svg width="624" height="624" viewBox="0 0 624 624" fill="none" xmlns="http://www.w3.org/2000/svg">
<circle cx="312" cy="312" r="312" fill="#212121"/>
<circle cx="536.5" cy="370.5" r="3.5" fill="#FFC107"/>
<circle cx="86.5" cy="370.5" r="3.5" fill="#FFC107"/>
<path d="M108.005 321H298.005V377H79.0047C61.4537 376.489 67.5357 350.341 93.0048 327.054C96.3649 323.727 102.505 321 108.005 321Z" stroke="#FFC107" stroke-width="3"/>
<path d="M511.227 321H298V377H543.772C563.469 376.489 556.643 350.341 528.061 327.054C524.29 323.727 517.399 321 511.227 321Z" stroke="#FFC107" stroke-width="3"/>
<path d="M463.5 372.5V328.5H490.5V372.5H463.5Z" stroke="#FFC107" stroke-width="3"/>
<path d="M508 328.5H495L495.5 365L508 360.5V328.5Z" stroke="#FFC107" stroke-width="3"/>
<path d="M537.5 336H518.5L529.5 361.5L552.5 358.5" stroke="#FFC107" stroke-width="3"/>
<path d="M85.5 335.5H104L94 361.5L70.5 359.5" stroke="#FFC107" stroke-width="3"/>
<path d="M114.5 360V328.5H128.5V364.5L114.5 360Z" stroke="#FFC107" stroke-width="3"/>
<path d="M158 328H134V372H158V328Z" stroke="#FFC107" stroke-width="3"/>
<path d="M186 366V328.5H212.5V366H186Z" stroke="#FFC107" stroke-width="3"/>
<path d="M249 365.5V328.5H275.5V365.5H249Z" stroke="#FFC107" stroke-width="3"/>
<path d="M326.5 366V329H353.5V366H326.5Z" stroke="#FFC107" stroke-width="3"/>
<path d="M358.5 373V329H385V373H358.5Z" stroke="#FFC107" stroke-width="3"/>
<path d="M390.5 366V329H416.5V366H390.5Z" stroke="#FFC107" stroke-width="3"/>
<path d="M218 372.5V328.5H244.5V372.5H218Z" stroke="#FFC107" stroke-width="3"/>
<path d="M241.524 243.695L228.24 260.727L224.109 251.447L219.599 253.455C221.167 249.494 221.208 244.931 219.342 240.741C215.663 232.477 205.946 228.747 197.681 232.426C192.236 234.851 188.759 239.897 188.074 245.422C183.51 242.235 177.434 241.441 171.988 243.866C163.724 247.545 159.994 257.262 163.673 265.527C165.539 269.717 168.956 272.74 172.95 274.224L168.439 276.232L185.726 315.058L241.395 290.273L237.263 280.993L258.809 282.517L241.524 243.695ZM199.588 236.709C205.491 234.08 212.432 236.745 215.06 242.648C217.688 248.551 215.024 255.492 209.121 258.12C203.218 260.748 196.277 258.084 193.649 252.181C191.021 246.278 193.685 239.337 199.588 236.709ZM198.643 262.785L193.905 264.894C194.418 263.598 194.769 262.238 194.941 260.846C196.091 261.649 197.336 262.299 198.643 262.785V262.785ZM167.955 263.62C165.327 257.717 167.991 250.776 173.894 248.148C179.798 245.52 186.738 248.184 189.366 254.087C191.995 259.99 189.33 266.931 183.427 269.559C177.524 272.188 170.583 269.523 167.955 263.62ZM235.206 287.897L188.101 308.869L174.628 278.608L221.733 257.636L235.206 287.897ZM251.35 277.29L235.103 276.141L230.401 265.579L240.418 252.735L251.35 277.29Z" fill="#FFC107"/>
<path d="M190.477 302.68L229.017 285.521L219.357 263.825L180.817 280.984L190.477 302.68ZM187.006 283.359L216.982 270.013L222.828 283.146L192.853 296.492L187.006 283.359Z" fill="#FFC107"/>
<path d="M130.566 422.943H116.44L113.755 431H105.188L119.744 391.898H127.209L141.846 431H133.279L130.566 422.943ZM118.616 416.417H128.391L123.477 401.781L118.616 416.417ZM161.316 409.22C160.26 409.077 159.329 409.005 158.523 409.005C155.587 409.005 153.662 409.999 152.749 411.986V431H144.988V401.942H152.319L152.534 405.407C154.092 402.739 156.249 401.405 159.006 401.405C159.866 401.405 160.671 401.522 161.423 401.754L161.316 409.22ZM176.624 425.28C178.056 425.28 179.22 424.886 180.115 424.098C181.01 423.31 181.475 422.263 181.511 420.956H188.789C188.771 422.925 188.234 424.734 187.178 426.381C186.121 428.01 184.671 429.281 182.827 430.194C181.001 431.09 178.978 431.537 176.758 431.537C172.604 431.537 169.328 430.221 166.929 427.589C164.53 424.94 163.33 421.287 163.33 416.632V416.122C163.33 411.646 164.521 408.074 166.902 405.407C169.283 402.739 172.55 401.405 176.704 401.405C180.339 401.405 183.248 402.444 185.432 404.521C187.634 406.579 188.753 409.328 188.789 412.765H181.511C181.475 411.261 181.01 410.044 180.115 409.113C179.22 408.164 178.038 407.689 176.57 407.689C174.762 407.689 173.392 408.352 172.461 409.677C171.548 410.984 171.091 413.114 171.091 416.068V416.874C171.091 419.864 171.548 422.012 172.461 423.319C173.374 424.626 174.762 425.28 176.624 425.28ZM206.594 431.537C202.333 431.537 198.86 430.23 196.174 427.616C193.507 425.002 192.173 421.52 192.173 417.169V416.417C192.173 413.499 192.737 410.894 193.865 408.603C194.993 406.293 196.586 404.521 198.645 403.285C200.722 402.032 203.085 401.405 205.735 401.405C209.709 401.405 212.834 402.659 215.107 405.165C217.399 407.672 218.545 411.225 218.545 415.827V418.996H200.042C200.292 420.893 201.044 422.415 202.297 423.561C203.569 424.707 205.171 425.28 207.104 425.28C210.094 425.28 212.431 424.197 214.114 422.03L217.927 426.3C216.764 427.947 215.188 429.236 213.201 430.167C211.213 431.081 209.011 431.537 206.594 431.537ZM205.708 407.689C204.168 407.689 202.915 408.209 201.948 409.247C200.999 410.285 200.391 411.771 200.122 413.705H210.918V413.087C210.882 411.369 210.417 410.044 209.521 409.113C208.626 408.164 207.355 407.689 205.708 407.689ZM254.182 417.975C253.878 422.182 252.32 425.495 249.509 427.912C246.716 430.329 243.028 431.537 238.445 431.537C233.432 431.537 229.484 429.854 226.602 426.488C223.737 423.104 222.305 418.467 222.305 412.577V410.187C222.305 406.427 222.967 403.115 224.292 400.25C225.617 397.386 227.506 395.193 229.958 393.671C232.429 392.131 235.294 391.361 238.552 391.361C243.064 391.361 246.698 392.57 249.456 394.987C252.213 397.404 253.806 400.797 254.236 405.165H246.179C245.982 402.641 245.275 400.814 244.058 399.687C242.858 398.541 241.023 397.968 238.552 397.968C235.867 397.968 233.853 398.935 232.51 400.868C231.185 402.784 230.505 405.765 230.469 409.811V412.765C230.469 416.99 231.104 420.079 232.375 422.03C233.665 423.982 235.688 424.958 238.445 424.958C240.933 424.958 242.786 424.394 244.004 423.266C245.239 422.12 245.946 420.356 246.125 417.975H254.182ZM267.153 431H259.365V401.942H267.153V431ZM258.909 394.423C258.909 393.259 259.294 392.301 260.063 391.549C260.851 390.797 261.917 390.421 263.259 390.421C264.584 390.421 265.64 390.797 266.428 391.549C267.216 392.301 267.61 393.259 267.61 394.423C267.61 395.604 267.207 396.571 266.401 397.323C265.614 398.075 264.566 398.451 263.259 398.451C261.952 398.451 260.896 398.075 260.09 397.323C259.303 396.571 258.909 395.604 258.909 394.423ZM282.864 394.799V401.942H287.832V407.636H282.864V422.138C282.864 423.212 283.07 423.982 283.481 424.447C283.893 424.913 284.681 425.146 285.845 425.146C286.704 425.146 287.465 425.083 288.127 424.958V430.839C286.606 431.304 285.039 431.537 283.428 431.537C277.985 431.537 275.21 428.789 275.103 423.292V407.636H270.859V401.942H275.103V394.799H282.864ZM303.005 420.016L308.376 401.942H316.702L305.02 435.512L304.375 437.042C302.638 440.838 299.774 442.736 295.781 442.736C294.653 442.736 293.507 442.566 292.344 442.226V436.344L293.525 436.371C294.993 436.371 296.086 436.147 296.802 435.7C297.536 435.252 298.109 434.509 298.521 433.471L299.434 431.081L289.255 401.942H297.607L303.005 420.016ZM364.666 417.975C364.361 422.182 362.804 425.495 359.993 427.912C357.2 430.329 353.512 431.537 348.928 431.537C343.915 431.537 339.967 429.854 337.085 426.488C334.22 423.104 332.788 418.467 332.788 412.577V410.187C332.788 406.427 333.451 403.115 334.775 400.25C336.1 397.386 337.989 395.193 340.442 393.671C342.913 392.131 345.777 391.361 349.036 391.361C353.547 391.361 357.182 392.57 359.939 394.987C362.696 397.404 364.29 400.797 364.719 405.165H356.663C356.466 402.641 355.758 400.814 354.541 399.687C353.341 398.541 351.506 397.968 349.036 397.968C346.35 397.968 344.336 398.935 342.993 400.868C341.668 402.784 340.988 405.765 340.952 409.811V412.765C340.952 416.99 341.588 420.079 342.859 422.03C344.148 423.982 346.171 424.958 348.928 424.958C351.417 424.958 353.27 424.394 354.487 423.266C355.723 422.12 356.43 420.356 356.609 417.975H364.666ZM377.637 431H369.849V401.942H377.637V431ZM369.392 394.423C369.392 393.259 369.777 392.301 370.547 391.549C371.335 390.797 372.4 390.421 373.743 390.421C375.068 390.421 376.124 390.797 376.912 391.549C377.699 392.301 378.093 393.259 378.093 394.423C378.093 395.604 377.69 396.571 376.885 397.323C376.097 398.075 375.05 398.451 373.743 398.451C372.436 398.451 371.379 398.075 370.574 397.323C369.786 396.571 369.392 395.604 369.392 394.423ZM391.199 401.942L391.44 405.299C393.517 402.703 396.301 401.405 399.792 401.405C402.872 401.405 405.164 402.309 406.667 404.118C408.171 405.926 408.941 408.629 408.977 412.228V431H401.216V412.416C401.216 410.769 400.858 409.578 400.142 408.844C399.425 408.092 398.235 407.716 396.57 407.716C394.386 407.716 392.747 408.647 391.655 410.509V431H383.894V401.942H391.199ZM428.259 431.537C423.998 431.537 420.525 430.23 417.839 427.616C415.172 425.002 413.838 421.52 413.838 417.169V416.417C413.838 413.499 414.402 410.894 415.53 408.603C416.658 406.293 418.251 404.521 420.31 403.285C422.387 402.032 424.75 401.405 427.4 401.405C431.375 401.405 434.499 402.659 436.772 405.165C439.064 407.672 440.21 411.225 440.21 415.827V418.996H421.707C421.957 420.893 422.709 422.415 423.962 423.561C425.234 424.707 426.836 425.28 428.77 425.28C431.759 425.28 434.096 424.197 435.779 422.03L439.592 426.3C438.429 427.947 436.853 429.236 434.866 430.167C432.878 431.081 430.676 431.537 428.259 431.537ZM427.373 407.689C425.833 407.689 424.58 408.209 423.613 409.247C422.664 410.285 422.056 411.771 421.787 413.705H432.583V413.087C432.547 411.369 432.082 410.044 431.187 409.113C430.291 408.164 429.02 407.689 427.373 407.689ZM451.919 401.942L452.161 405.192C454.22 402.667 457.004 401.405 460.513 401.405C464.255 401.405 466.824 402.882 468.22 405.836C470.261 402.882 473.171 401.405 476.948 401.405C480.099 401.405 482.445 402.327 483.984 404.171C485.524 405.998 486.294 408.755 486.294 412.443V431H478.506V412.47C478.506 410.823 478.184 409.623 477.539 408.871C476.895 408.101 475.758 407.716 474.128 407.716C471.801 407.716 470.19 408.826 469.294 411.046L469.321 431H461.56V412.497C461.56 410.814 461.229 409.596 460.566 408.844C459.904 408.092 458.776 407.716 457.183 407.716C454.98 407.716 453.387 408.629 452.402 410.456V431H444.641V401.942H451.919ZM509.121 431C508.763 430.302 508.503 429.433 508.342 428.395C506.462 430.49 504.019 431.537 501.011 431.537C498.164 431.537 495.801 430.714 493.921 429.066C492.059 427.419 491.128 425.342 491.128 422.836C491.128 419.757 492.265 417.393 494.539 415.746C496.83 414.099 500.133 413.266 504.448 413.249H508.02V411.583C508.02 410.241 507.671 409.167 506.973 408.361C506.292 407.555 505.209 407.152 503.723 407.152C502.416 407.152 501.387 407.466 500.635 408.092C499.901 408.719 499.534 409.578 499.534 410.67H491.772C491.772 408.987 492.292 407.43 493.33 405.998C494.368 404.565 495.837 403.446 497.734 402.641C499.632 401.817 501.763 401.405 504.126 401.405C507.707 401.405 510.544 402.309 512.639 404.118C514.752 405.908 515.808 408.432 515.808 411.691V424.286C515.826 427.043 516.211 429.129 516.963 430.543V431H509.121ZM502.703 425.602C503.848 425.602 504.905 425.351 505.872 424.85C506.838 424.331 507.555 423.642 508.02 422.782V417.787H505.12C501.235 417.787 499.167 419.13 498.916 421.815L498.889 422.272C498.889 423.239 499.229 424.035 499.91 424.662C500.59 425.289 501.521 425.602 502.703 425.602Z" fill="#FFC107"/>
<path d="M417.788 243.86C417.811 243.832 417.837 243.805 417.863 243.779C417.869 243.765 417.884 243.753 417.896 243.742C418.001 243.657 418.119 243.589 418.245 243.54C418.274 243.528 418.305 243.524 418.334 243.514C418.452 243.477 418.574 243.456 418.697 243.451C418.741 243.45 418.783 243.448 418.827 243.452C418.985 243.458 419.14 243.493 419.286 243.554L469.376 265.855L469.874 265.598L456.354 253.666L456.19 253.521L455.947 253.308L442.954 241.839L440.197 239.406L436.116 235.806L426.195 227.052C425.643 226.564 425.591 225.722 426.079 225.17L426.079 225.17L433.137 217.171C433.154 217.152 433.178 217.145 433.196 217.127C433.284 217.038 433.384 216.961 433.494 216.901C433.529 216.881 433.56 216.857 433.596 216.841C433.61 216.833 433.623 216.825 433.637 216.818C433.762 216.769 433.893 216.739 434.027 216.729C434.062 216.726 434.097 216.733 434.132 216.732C434.252 216.732 434.371 216.747 434.486 216.777C434.53 216.79 434.57 216.802 434.614 216.818C434.763 216.872 434.901 216.952 435.021 217.055L464.304 242.896L467.013 245.288L471.666 249.394L484.938 261.107L489.406 263.096C490.079 263.396 490.381 264.184 490.082 264.857L467.845 314.802C466.946 316.82 464.582 317.728 462.563 316.829L401.655 289.711C399.637 288.812 398.729 286.448 399.627 284.429L417.525 244.23C417.536 244.207 417.557 244.193 417.568 244.17C417.626 244.057 417.7 243.952 417.788 243.86ZM420.638 247.075L422.865 256.825L429.565 259.808L427.337 250.058L420.638 247.075ZM430.383 251.414L432.61 261.164L439.31 264.147L437.083 254.397L430.383 251.414ZM440.128 255.753L442.356 265.502L449.056 268.485L446.828 258.736L440.128 255.753ZM449.874 260.092L452.101 269.841L458.801 272.824L456.574 263.075L449.874 260.092ZM459.619 264.431L461.847 274.18L462.456 274.451L465.167 268.361C465.29 268.084 465.504 267.857 465.773 267.718L466.323 267.434L459.619 264.431ZM432.488 221.94L428.956 225.939L431.958 228.586L432.488 221.94ZM439.071 224.189L435.248 220.817L434.458 230.786L437.947 233.865L439.959 235.637L440.749 225.666L439.071 224.189ZM448.074 232.135L443.253 227.878L442.462 237.849L447.961 242.701L448.752 232.729L448.074 232.135ZM451.247 234.934L450.457 244.904L455.954 249.756L456.744 239.786L451.247 234.934ZM464.742 246.849L459.245 241.993L458.454 251.967L463.952 256.82L464.742 246.849ZM467.238 249.045L466.449 259.014L469.835 262.005L471.947 263.868L472.737 253.897L467.238 249.045ZM475.247 256.112L474.687 263.111L480.04 260.342L475.247 256.112ZM487.103 264.99L481.597 262.539L472.83 267.072L470.036 268.516L468.707 269.205L468.478 269.324L467.424 269.868L464.899 275.539L479.51 282.045L487.103 264.99ZM402.064 285.514C401.764 286.187 402.067 286.975 402.74 287.275L463.648 314.393C464.321 314.692 465.109 314.39 465.408 313.717L478.425 284.481L415.081 256.278L402.064 285.514ZM416.165 253.842L419.82 255.469L418.335 248.969L416.165 253.842Z" fill="#FFC107"/>
<path d="M476.807 275.002L479.243 276.087L478.158 278.523L475.722 277.439L476.807 275.002Z" fill="#FFC107"/>
<path d="M481.146 265.257L483.582 266.342L482.497 268.778L480.061 267.693L481.146 265.257Z" fill="#FFC107"/>
<path d="M469.498 271.748L471.934 272.833L470.849 275.269L468.413 274.185L469.498 271.748Z" fill="#FFC107"/>
<path d="M416.699 265.756L470.298 289.62L469.214 292.057L415.614 268.193L416.699 265.756Z" fill="#FFC107"/>
<path d="M465.959 299.366L464.875 301.802L449.039 294.751L445.784 302.06L443.348 300.976L446.602 293.667L429.548 286.074L426.294 293.383L423.857 292.298L427.112 284.989L411.275 277.938L412.36 275.502L465.959 299.366Z" fill="#FFC107"/>
<path d="M351.75 308.686H276.312L267.438 237.686H360.625L351.75 308.686Z" fill="#FFC107"/>
<path d="M385.031 308.686H358.406L353.969 264.311H389.469L385.031 308.686Z" fill="#FFC107"/>
<path d="M387.724 281.753L386.415 294.836L356.493 289.555L355.139 276.004L387.724 281.753Z" fill="#0296E5"/>
<path d="M391.688 255.436H351.75L353.969 246.561H389.469L391.688 255.436Z" fill="#EAEAE8"/>
<path d="M380.594 246.561H376.156V224.374L382.812 211.061H387.25L380.594 226.592V246.561Z" fill="#FBB540"/>
<path d="M307.375 237.686H320.688V308.686H307.375V237.686Z" fill="#CBCBCB"/>
<path d="M296.281 308.686H285.188L280.75 237.686H294.062L296.281 308.686Z" fill="#CBCBCB"/>
<path d="M342.875 308.686H331.781L334 237.686H347.312L342.875 308.686Z" fill="#CBCBCB"/>
<path d="M337.249 206.634C337.519 205.957 337.654 205.234 337.645 204.506C337.637 203.777 337.484 203.058 337.197 202.388C336.91 201.718 336.494 201.112 335.973 200.603C335.452 200.094 334.835 199.693 334.159 199.423C334.429 198.746 334.564 198.023 334.555 197.295C334.546 196.567 334.394 195.847 334.107 195.178C333.82 194.508 333.404 193.902 332.883 193.393C332.361 192.884 331.745 192.483 331.069 192.212C330.392 191.942 329.669 191.807 328.941 191.816C328.213 191.825 327.493 191.977 326.824 192.264C326.154 192.551 325.548 192.967 325.039 193.488C324.53 194.01 324.129 194.626 323.858 195.302C322.492 194.756 320.965 194.775 319.613 195.354C318.261 195.934 317.194 197.027 316.648 198.393C316.102 199.758 316.12 201.285 316.7 202.638C317.279 203.99 318.372 205.056 319.738 205.603C319.796 205.626 319.854 205.641 319.912 205.662C319.911 205.665 319.909 205.668 319.908 205.671C319.362 207.037 319.38 208.564 319.96 209.916C320.539 211.268 321.632 212.335 322.998 212.881C324.364 213.427 325.891 213.409 327.243 212.829C328.595 212.25 329.662 211.157 330.208 209.791C330.208 209.788 330.21 209.785 330.211 209.782C331.563 210.273 333.054 210.219 334.367 209.632C335.68 209.044 336.714 207.969 337.249 206.634Z" fill="#D18D28"/>
<path d="M308.451 200.809C307.915 199.439 306.856 198.338 305.509 197.749C304.161 197.159 302.634 197.129 301.264 197.665C300.728 196.295 299.67 195.195 298.322 194.605C296.974 194.015 295.447 193.985 294.077 194.521C292.707 195.057 291.607 196.116 291.017 197.463C290.427 198.811 290.397 200.338 290.933 201.708C289.563 202.244 288.462 203.302 287.873 204.65C287.283 205.998 287.253 207.525 287.789 208.895C288.325 210.265 289.383 211.366 290.731 211.955C292.079 212.545 293.606 212.575 294.976 212.039C295.033 212.017 295.087 211.988 295.142 211.964C295.142 211.966 295.144 211.969 295.145 211.973C295.41 212.651 295.807 213.27 296.312 213.795C296.817 214.321 297.42 214.741 298.087 215.033C298.755 215.325 299.473 215.483 300.201 215.497C300.929 215.511 301.653 215.382 302.332 215.117C303.01 214.851 303.63 214.455 304.155 213.95C304.68 213.445 305.1 212.842 305.392 212.175C305.684 211.507 305.842 210.789 305.856 210.061C305.871 209.332 305.741 208.608 305.476 207.93C305.476 207.927 305.473 207.924 305.472 207.921C306.795 207.354 307.845 206.295 308.401 204.968C308.957 203.641 308.975 202.149 308.451 200.809V200.809Z" fill="#FBB540"/>
<path d="M284.045 186.67C283.78 185.992 283.383 185.372 282.878 184.847C282.374 184.322 281.77 183.901 281.103 183.609C280.436 183.317 279.717 183.16 278.989 183.145C278.261 183.131 277.537 183.26 276.858 183.526C276.593 182.847 276.197 182.228 275.692 181.703C275.187 181.178 274.584 180.757 273.916 180.465C273.249 180.173 272.53 180.015 271.802 180.001C271.074 179.987 270.35 180.116 269.672 180.381C268.993 180.647 268.374 181.043 267.849 181.548C267.324 182.053 266.903 182.656 266.611 183.324C266.319 183.991 266.161 184.709 266.147 185.438C266.133 186.166 266.262 186.89 266.527 187.568C265.157 188.104 264.056 189.163 263.467 190.51C262.877 191.858 262.847 193.385 263.383 194.755C263.919 196.125 264.978 197.226 266.325 197.816C267.673 198.405 269.2 198.435 270.57 197.899C270.628 197.877 270.681 197.848 270.736 197.824C270.736 197.827 270.738 197.83 270.739 197.833C271.275 199.203 272.334 200.304 273.681 200.893C275.029 201.483 276.556 201.513 277.926 200.977C279.296 200.441 280.397 199.383 280.986 198.035C281.576 196.687 281.606 195.16 281.07 193.79C281.07 193.787 281.067 193.785 281.066 193.782C282.389 193.215 283.439 192.156 283.995 190.829C284.551 189.501 284.569 188.01 284.045 186.67V186.67Z" fill="#D18D28"/>
<path d="M289.625 224.374C289.625 222.903 289.041 221.492 288 220.451C286.96 219.411 285.549 218.827 284.078 218.827C284.078 217.356 283.494 215.945 282.453 214.905C281.413 213.864 280.002 213.28 278.531 213.28C277.06 213.28 275.649 213.864 274.609 214.905C273.569 215.945 272.984 217.356 272.984 218.827C271.513 218.827 270.102 219.411 269.062 220.451C268.022 221.492 267.438 222.903 267.438 224.374C267.438 225.845 268.022 227.256 269.062 228.296C270.102 229.336 271.513 229.921 272.984 229.921C273.046 229.921 273.106 229.913 273.168 229.911V229.921C273.168 231.392 273.752 232.803 274.792 233.843C275.833 234.883 277.243 235.467 278.715 235.467C280.186 235.467 281.597 234.883 282.637 233.843C283.677 232.803 284.261 231.392 284.261 229.921C284.261 229.917 284.261 229.914 284.261 229.911C285.699 229.865 287.063 229.261 288.064 228.228C289.064 227.194 289.624 225.812 289.625 224.374Z" fill="#FBB540"/>
<path d="M311.812 224.374C311.812 222.903 311.228 221.492 310.188 220.451C309.148 219.411 307.737 218.827 306.266 218.827C306.266 217.356 305.681 215.945 304.641 214.905C303.601 213.864 302.19 213.28 300.719 213.28C299.248 213.28 297.837 213.864 296.797 214.905C295.756 215.945 295.172 217.356 295.172 218.827C293.701 218.827 292.29 219.411 291.25 220.451C290.209 221.492 289.625 222.903 289.625 224.374C289.625 225.845 290.209 227.256 291.25 228.296C292.29 229.336 293.701 229.921 295.172 229.921C295.234 229.921 295.294 229.913 295.355 229.911V229.921C295.355 231.392 295.94 232.803 296.98 233.843C298.02 234.883 299.431 235.467 300.902 235.467C302.373 235.467 303.784 234.883 304.824 233.843C305.865 232.803 306.449 231.392 306.449 229.921C306.449 229.917 306.449 229.914 306.449 229.911C307.887 229.865 309.25 229.261 310.251 228.228C311.252 227.194 311.812 225.812 311.812 224.374V224.374Z" fill="#D18D28"/>
<path d="M334 224.374C334 222.903 333.416 221.492 332.375 220.451C331.335 219.411 329.924 218.827 328.453 218.827C328.453 217.356 327.869 215.945 326.828 214.905C325.788 213.864 324.377 213.28 322.906 213.28C321.435 213.28 320.024 213.864 318.984 214.905C317.944 215.945 317.359 217.356 317.359 218.827C315.888 218.827 314.477 219.411 313.437 220.451C312.397 221.492 311.812 222.903 311.812 224.374C311.812 225.845 312.397 227.256 313.437 228.296C314.477 229.336 315.888 229.921 317.359 229.921C317.421 229.921 317.481 229.913 317.543 229.911V229.921C317.543 231.392 318.127 232.803 319.167 233.843C320.208 234.883 321.618 235.467 323.09 235.467C324.561 235.467 325.972 234.883 327.012 233.843C328.052 232.803 328.636 231.392 328.636 229.921C328.636 229.917 328.636 229.914 328.636 229.911C330.074 229.865 331.438 229.261 332.439 228.228C333.439 227.194 333.999 225.812 334 224.374Z" fill="#FBB540"/>
<path d="M356.188 224.374C356.188 222.903 355.603 221.492 354.563 220.451C353.523 219.411 352.112 218.827 350.641 218.827C350.641 217.356 350.056 215.945 349.016 214.905C347.976 213.864 346.565 213.28 345.094 213.28C343.623 213.28 342.212 213.864 341.172 214.905C340.131 215.945 339.547 217.356 339.547 218.827C338.076 218.827 336.665 219.411 335.625 220.451C334.584 221.492 334 222.903 334 224.374C334 225.845 334.584 227.256 335.625 228.296C336.665 229.336 338.076 229.921 339.547 229.921C339.609 229.921 339.669 229.913 339.73 229.911V229.921C339.73 231.392 340.315 232.803 341.355 233.843C342.395 234.883 343.806 235.467 345.277 235.467C346.748 235.467 348.159 234.883 349.199 233.843C350.24 232.803 350.824 231.392 350.824 229.921C350.824 229.917 350.824 229.914 350.824 229.911C352.262 229.865 353.625 229.261 354.626 228.228C355.627 227.194 356.187 225.812 356.188 224.374Z" fill="#D18D28"/>
<path d="M364.49 199.863C365.14 198.544 365.24 197.02 364.766 195.627C364.293 194.234 363.286 193.086 361.966 192.436C362.617 191.117 362.716 189.593 362.243 188.2C361.769 186.807 360.762 185.659 359.442 185.009C358.123 184.358 356.599 184.259 355.206 184.732C353.813 185.206 352.665 186.213 352.015 187.532C350.695 186.882 349.171 186.783 347.778 187.256C346.386 187.729 345.238 188.737 344.587 190.056C343.937 191.376 343.838 192.9 344.311 194.293C344.785 195.686 345.792 196.834 347.111 197.484C347.167 197.512 347.224 197.531 347.28 197.556C347.28 197.559 347.277 197.562 347.275 197.564C346.953 198.218 346.763 198.928 346.716 199.655C346.668 200.382 346.765 201.111 346.999 201.801C347.233 202.491 347.601 203.127 348.082 203.675C348.562 204.222 349.146 204.67 349.799 204.992C350.453 205.314 351.163 205.504 351.89 205.551C352.617 205.599 353.346 205.503 354.036 205.268C354.725 205.034 355.362 204.666 355.91 204.185C356.457 203.705 356.905 203.121 357.227 202.468C357.227 202.465 357.229 202.462 357.23 202.46C358.541 203.054 360.031 203.115 361.386 202.631C362.74 202.146 363.854 201.154 364.49 199.863V199.863Z" fill="#FBB540"/>
<path d="M314.031 290.936C325.06 290.936 334 281.996 334 270.967C334 259.939 325.06 250.999 314.031 250.999C303.003 250.999 294.062 259.939 294.062 270.967C294.062 281.996 303.003 290.936 314.031 290.936Z" fill="#EAEAE8"/>
<path d="M387.724 281.753L386.415 294.836L356.493 289.555L355.139 276.004L387.724 281.753Z" fill="#EAEAE8"/>
<path d="M349.531 255.436H393.906V264.311H349.531V255.436Z" fill="#CBCBCB"/>
<path d="M360.625 228.811H267.438C264.987 228.811 263 230.798 263 233.249C263 235.699 264.987 237.686 267.438 237.686H360.625C363.076 237.686 365.062 235.699 365.062 233.249C365.062 230.798 363.076 228.811 360.625 228.811Z" fill="#EAEAE8"/>
<path d="M376.156 242.124H380.594V246.561H376.156V242.124Z" fill="#D18D28"/>
</svg>
