<svg width="2034" height="492" viewBox="0 0 2034 492" fill="none" xmlns="http://www.w3.org/2000/svg">
<rect width="2034" height="492" rx="30" fill="#212121"/>
<path d="M891.938 282.906H854.953L847.922 304H825.492L863.602 201.625H883.148L921.469 304H899.039L891.938 282.906ZM860.648 265.82H886.242L873.375 227.5L860.648 265.82ZM972.445 246.977C969.68 246.602 967.242 246.414 965.133 246.414C957.445 246.414 952.406 249.016 950.016 254.219V304H929.695V227.922H948.891L949.453 236.992C953.531 230.008 959.18 226.516 966.398 226.516C968.648 226.516 970.758 226.82 972.727 227.43L972.445 246.977ZM1012.52 289.023C1016.27 289.023 1019.32 287.992 1021.66 285.93C1024.01 283.867 1025.23 281.125 1025.32 277.703H1044.38C1044.33 282.859 1042.92 287.594 1040.16 291.906C1037.39 296.172 1033.59 299.5 1028.77 301.891C1023.98 304.234 1018.69 305.406 1012.88 305.406C1002 305.406 993.422 301.961 987.141 295.07C980.859 288.133 977.719 278.57 977.719 266.383V265.047C977.719 253.328 980.836 243.977 987.07 236.992C993.305 230.008 1001.86 226.516 1012.73 226.516C1022.25 226.516 1029.87 229.234 1035.59 234.672C1041.35 240.062 1044.28 247.258 1044.38 256.258H1025.32C1025.23 252.32 1024.01 249.133 1021.66 246.695C1019.32 244.211 1016.23 242.969 1012.38 242.969C1007.65 242.969 1004.06 244.703 1001.62 248.172C999.234 251.594 998.039 257.172 998.039 264.906V267.016C998.039 274.844 999.234 280.469 1001.62 283.891C1004.02 287.312 1007.65 289.023 1012.52 289.023ZM1090.99 305.406C1079.84 305.406 1070.74 301.984 1063.71 295.141C1056.73 288.297 1053.23 279.18 1053.23 267.789V265.82C1053.23 258.18 1054.71 251.359 1057.66 245.359C1060.62 239.312 1064.79 234.672 1070.18 231.438C1075.62 228.156 1081.8 226.516 1088.74 226.516C1099.15 226.516 1107.33 229.797 1113.28 236.359C1119.28 242.922 1122.28 252.227 1122.28 264.273V272.57H1073.84C1074.49 277.539 1076.46 281.523 1079.74 284.523C1083.07 287.523 1087.27 289.023 1092.33 289.023C1100.16 289.023 1106.27 286.188 1110.68 280.516L1120.66 291.695C1117.62 296.008 1113.49 299.383 1108.29 301.82C1103.09 304.211 1097.32 305.406 1090.99 305.406ZM1088.67 242.969C1084.64 242.969 1081.36 244.328 1078.83 247.047C1076.34 249.766 1074.75 253.656 1074.05 258.719H1102.31V257.102C1102.22 252.602 1101 249.133 1098.66 246.695C1096.31 244.211 1092.98 242.969 1088.67 242.969ZM1215.59 269.898C1214.79 280.914 1210.71 289.586 1203.35 295.914C1196.04 302.242 1186.38 305.406 1174.38 305.406C1161.26 305.406 1150.92 301 1143.38 292.188C1135.88 283.328 1132.12 271.188 1132.12 255.766V249.508C1132.12 239.664 1133.86 230.992 1137.33 223.492C1140.8 215.992 1145.74 210.25 1152.16 206.266C1158.63 202.234 1166.13 200.219 1174.66 200.219C1186.48 200.219 1195.99 203.383 1203.21 209.711C1210.43 216.039 1214.6 224.922 1215.73 236.359H1194.63C1194.12 229.75 1192.27 224.969 1189.08 222.016C1185.94 219.016 1181.13 217.516 1174.66 217.516C1167.63 217.516 1162.36 220.047 1158.84 225.109C1155.38 230.125 1153.59 237.93 1153.5 248.523V256.258C1153.5 267.32 1155.16 275.406 1158.49 280.516C1161.87 285.625 1167.16 288.18 1174.38 288.18C1180.9 288.18 1185.75 286.703 1188.94 283.75C1192.17 280.75 1194.02 276.133 1194.49 269.898H1215.59ZM1249.55 304H1229.16V227.922H1249.55V304ZM1227.96 208.234C1227.96 205.188 1228.97 202.68 1230.98 200.711C1233.05 198.742 1235.84 197.758 1239.35 197.758C1242.82 197.758 1245.59 198.742 1247.65 200.711C1249.71 202.68 1250.74 205.188 1250.74 208.234C1250.74 211.328 1249.69 213.859 1247.58 215.828C1245.52 217.797 1242.77 218.781 1239.35 218.781C1235.93 218.781 1233.16 217.797 1231.05 215.828C1228.99 213.859 1227.96 211.328 1227.96 208.234ZM1290.68 209.219V227.922H1303.69V242.828H1290.68V280.797C1290.68 283.609 1291.22 285.625 1292.3 286.844C1293.38 288.062 1295.44 288.672 1298.48 288.672C1300.73 288.672 1302.73 288.508 1304.46 288.18V303.578C1300.48 304.797 1296.38 305.406 1292.16 305.406C1277.91 305.406 1270.64 298.211 1270.36 283.82V242.828H1259.25V227.922H1270.36V209.219H1290.68ZM1343.41 275.242L1357.48 227.922H1379.27L1348.69 315.812L1347 319.82C1342.45 329.758 1334.95 334.727 1324.5 334.727C1321.55 334.727 1318.55 334.281 1315.5 333.391V317.992L1318.59 318.062C1322.44 318.062 1325.3 317.477 1327.17 316.305C1329.09 315.133 1330.59 313.188 1331.67 310.469L1334.06 304.211L1307.41 227.922H1329.28L1343.41 275.242ZM1504.85 269.898C1504.05 280.914 1499.98 289.586 1492.62 295.914C1485.3 302.242 1475.65 305.406 1463.65 305.406C1450.52 305.406 1440.19 301 1432.64 292.188C1425.14 283.328 1421.39 271.188 1421.39 255.766V249.508C1421.39 239.664 1423.12 230.992 1426.59 223.492C1430.06 215.992 1435.01 210.25 1441.43 206.266C1447.9 202.234 1455.4 200.219 1463.93 200.219C1475.74 200.219 1485.26 203.383 1492.48 209.711C1499.7 216.039 1503.87 224.922 1504.99 236.359H1483.9C1483.38 229.75 1481.53 224.969 1478.34 222.016C1475.2 219.016 1470.4 217.516 1463.93 217.516C1456.9 217.516 1451.62 220.047 1448.11 225.109C1444.64 230.125 1442.86 237.93 1442.77 248.523V256.258C1442.77 267.32 1444.43 275.406 1447.76 280.516C1451.13 285.625 1456.43 288.18 1463.65 288.18C1470.16 288.18 1475.02 286.703 1478.2 283.75C1481.44 280.75 1483.29 276.133 1483.76 269.898H1504.85ZM1538.81 304H1518.42V227.922H1538.81V304ZM1517.23 208.234C1517.23 205.188 1518.23 202.68 1520.25 200.711C1522.31 198.742 1525.1 197.758 1528.62 197.758C1532.09 197.758 1534.85 198.742 1536.91 200.711C1538.98 202.68 1540.01 205.188 1540.01 208.234C1540.01 211.328 1538.95 213.859 1536.84 215.828C1534.78 217.797 1532.04 218.781 1528.62 218.781C1525.2 218.781 1522.43 217.797 1520.32 215.828C1518.26 213.859 1517.23 211.328 1517.23 208.234ZM1574.32 227.922L1574.95 236.711C1580.39 229.914 1587.68 226.516 1596.82 226.516C1604.88 226.516 1610.88 228.883 1614.82 233.617C1618.76 238.352 1620.77 245.43 1620.87 254.852V304H1600.55V255.344C1600.55 251.031 1599.61 247.914 1597.73 245.992C1595.86 244.023 1592.74 243.039 1588.38 243.039C1582.66 243.039 1578.38 245.477 1575.52 250.352V304H1555.2V227.922H1574.32ZM1671.35 305.406C1660.2 305.406 1651.1 301.984 1644.07 295.141C1637.09 288.297 1633.59 279.18 1633.59 267.789V265.82C1633.59 258.18 1635.07 251.359 1638.02 245.359C1640.98 239.312 1645.15 234.672 1650.54 231.438C1655.98 228.156 1662.16 226.516 1669.1 226.516C1679.51 226.516 1687.69 229.797 1693.64 236.359C1699.64 242.922 1702.64 252.227 1702.64 264.273V272.57H1654.2C1654.85 277.539 1656.82 281.523 1660.1 284.523C1663.43 287.523 1667.62 289.023 1672.69 289.023C1680.52 289.023 1686.63 286.188 1691.04 280.516L1701.02 291.695C1697.98 296.008 1693.85 299.383 1688.65 301.82C1683.45 304.211 1677.68 305.406 1671.35 305.406ZM1669.03 242.969C1665 242.969 1661.72 244.328 1659.19 247.047C1656.7 249.766 1655.11 253.656 1654.41 258.719H1682.67V257.102C1682.58 252.602 1681.36 249.133 1679.02 246.695C1676.67 244.211 1673.34 242.969 1669.03 242.969ZM1733.3 227.922L1733.93 236.43C1739.32 229.82 1746.61 226.516 1755.8 226.516C1765.59 226.516 1772.32 230.383 1775.98 238.117C1781.32 230.383 1788.94 226.516 1798.83 226.516C1807.08 226.516 1813.22 228.93 1817.25 233.758C1821.28 238.539 1823.3 245.758 1823.3 255.414V304H1802.91V255.484C1802.91 251.172 1802.06 248.031 1800.38 246.062C1798.69 244.047 1795.71 243.039 1791.45 243.039C1785.35 243.039 1781.13 245.945 1778.79 251.758L1778.86 304H1758.54V255.555C1758.54 251.148 1757.67 247.961 1755.94 245.992C1754.2 244.023 1751.25 243.039 1747.08 243.039C1741.31 243.039 1737.14 245.43 1734.56 250.211V304H1714.24V227.922H1733.3ZM1883.06 304C1882.12 302.172 1881.45 299.898 1881.02 297.18C1876.1 302.664 1869.7 305.406 1861.83 305.406C1854.38 305.406 1848.19 303.25 1843.27 298.938C1838.39 294.625 1835.95 289.188 1835.95 282.625C1835.95 274.562 1838.93 268.375 1844.88 264.062C1850.88 259.75 1859.53 257.57 1870.83 257.523H1880.18V253.164C1880.18 249.648 1879.27 246.836 1877.44 244.727C1875.66 242.617 1872.82 241.562 1868.93 241.562C1865.51 241.562 1862.81 242.383 1860.84 244.023C1858.92 245.664 1857.96 247.914 1857.96 250.773H1837.64C1837.64 246.367 1839 242.289 1841.72 238.539C1844.44 234.789 1848.28 231.859 1853.25 229.75C1858.22 227.594 1863.8 226.516 1869.98 226.516C1879.36 226.516 1886.79 228.883 1892.27 233.617C1897.8 238.305 1900.57 244.914 1900.57 253.445V286.422C1900.62 293.641 1901.62 299.102 1903.59 302.805V304H1883.06ZM1866.26 289.867C1869.26 289.867 1872.02 289.211 1874.55 287.898C1877.09 286.539 1878.96 284.734 1880.18 282.484V269.406H1872.59C1862.41 269.406 1857 272.922 1856.34 279.953L1856.27 281.148C1856.27 283.68 1857.16 285.766 1858.95 287.406C1860.73 289.047 1863.16 289.867 1866.26 289.867Z" fill="#FFC107"/>
<circle cx="742.005" cy="367.421" r="4.61929" fill="#FFC107"/>
<circle cx="148.096" cy="367.421" r="4.61929" fill="#FFC107"/>
<path d="M176.478 302.091H427.24V376H138.204C115.04 375.326 123.067 340.815 156.681 310.081C161.116 305.691 169.219 302.091 176.478 302.091Z" stroke="#FFC107" stroke-width="3.95939"/>
<path d="M708.65 302.091H427.234V376H751.603C777.598 375.326 768.59 340.815 730.867 310.081C725.89 305.691 716.796 302.091 708.65 302.091Z" stroke="#FFC107" stroke-width="3.95939"/>
<path d="M645.66 370.061V311.99H681.294V370.061H645.66Z" stroke="#FFC107" stroke-width="3.95939"/>
<path d="M704.391 311.99H687.234L687.893 360.162L704.391 354.223V311.99Z" stroke="#FFC107" stroke-width="3.95939"/>
<path d="M743.325 321.888H718.249L732.766 355.543L763.122 351.584" stroke="#FFC107" stroke-width="3.95939"/>
<path d="M146.777 321.228H171.193L157.995 355.543L126.98 352.904" stroke="#FFC107" stroke-width="3.95939"/>
<path d="M185.051 353.563V311.99H203.528V359.503L185.051 353.563Z" stroke="#FFC107" stroke-width="3.95939"/>
<path d="M242.462 311.33H210.787V369.401H242.462V311.33Z" stroke="#FFC107" stroke-width="3.95939"/>
<path d="M279.416 361.482V311.99H314.391V361.482H279.416Z" stroke="#FFC107" stroke-width="3.95939"/>
<path d="M362.563 360.822V311.99H397.538V360.822H362.563Z" stroke="#FFC107" stroke-width="3.95939"/>
<path d="M464.848 361.482V312.65H500.482V361.482H464.848Z" stroke="#FFC107" stroke-width="3.95939"/>
<path d="M507.081 370.721V312.65H542.056V370.721H507.081Z" stroke="#FFC107" stroke-width="3.95939"/>
<path d="M549.315 361.482V312.65H583.629V361.482H549.315Z" stroke="#FFC107" stroke-width="3.95939"/>
<path d="M321.65 370.061V311.99H356.624V370.061H321.65Z" stroke="#FFC107" stroke-width="3.95939"/>
<path d="M352.696 200.065L335.165 222.543L329.712 210.295L323.76 212.946C325.83 207.718 325.883 201.696 323.421 196.166C318.565 185.259 305.74 180.336 294.833 185.192C287.646 188.392 283.058 195.052 282.153 202.344C276.13 198.137 268.11 197.09 260.923 200.29C250.016 205.146 245.093 217.971 249.949 228.878C252.411 234.408 256.922 238.398 262.192 240.357L256.24 243.007L279.054 294.249L352.526 261.537L347.073 249.29L375.509 251.302L352.696 200.065ZM297.35 190.844C305.14 187.375 314.301 190.892 317.769 198.682C321.238 206.473 317.722 215.634 309.931 219.102C302.14 222.571 292.98 219.055 289.511 211.264C286.042 203.473 289.559 194.313 297.35 190.844ZM296.102 225.259L289.849 228.043C290.527 226.332 290.989 224.537 291.217 222.701C292.734 223.76 294.377 224.618 296.102 225.259V225.259ZM255.601 226.362C252.132 218.571 255.648 209.41 263.439 205.942C271.23 202.473 280.391 205.989 283.859 213.78C287.328 221.571 283.812 230.731 276.021 234.2C268.23 237.669 259.07 234.153 255.601 226.362ZM344.358 258.402L282.19 286.081L264.408 246.143L326.577 218.463L344.358 258.402ZM365.665 244.404L344.222 242.886L338.016 228.947L351.237 211.996L365.665 244.404Z" fill="#FFC107"/>
<path d="M285.325 277.913L336.19 255.267L323.441 226.631L272.576 249.278L285.325 277.913ZM280.744 252.413L320.306 234.799L328.022 252.131L288.461 269.745L280.744 252.413Z" fill="#FFC107"/>
<path d="M585.329 200.283C585.36 200.245 585.394 200.209 585.429 200.175C585.437 200.157 585.456 200.141 585.472 200.127C585.611 200.015 585.767 199.925 585.933 199.86C585.971 199.844 586.012 199.839 586.051 199.826C586.206 199.777 586.366 199.749 586.529 199.742C586.587 199.741 586.642 199.739 586.7 199.743C586.909 199.752 587.114 199.797 587.306 199.878L653.415 229.312L654.072 228.973L636.229 213.224L636.012 213.033L635.692 212.752L618.543 197.615L614.905 194.404L609.519 189.652L596.425 178.099C595.697 177.456 595.628 176.344 596.271 175.615L596.271 175.615L605.587 165.058C605.61 165.033 605.641 165.024 605.665 165C605.781 164.882 605.914 164.782 606.058 164.701C606.104 164.676 606.145 164.644 606.193 164.623C606.211 164.612 606.229 164.602 606.247 164.593C606.411 164.527 606.585 164.487 606.762 164.475C606.808 164.471 606.854 164.48 606.901 164.479C607.058 164.479 607.215 164.499 607.367 164.539C607.426 164.555 607.478 164.571 607.536 164.593C607.733 164.663 607.915 164.769 608.073 164.905L646.721 199.011L650.297 202.167L656.437 207.586L673.953 223.045L679.85 225.67C680.738 226.065 681.138 227.106 680.742 227.994L651.394 293.911C650.208 296.575 647.087 297.773 644.424 296.587L564.037 260.796C561.373 259.61 560.175 256.489 561.361 253.825L584.983 200.77C584.996 200.74 585.024 200.721 585.039 200.691C585.116 200.542 585.213 200.404 585.329 200.283ZM589.09 204.525L592.03 217.393L600.873 221.33L597.933 208.462L589.09 204.525ZM601.952 210.252L604.892 223.119L613.735 227.056L610.795 214.189L601.952 210.252ZM614.814 215.978L617.754 228.846L626.596 232.783L623.656 219.915L614.814 215.978ZM627.676 221.705L630.616 234.572L639.458 238.509L636.518 225.642L627.676 221.705ZM640.538 227.431L643.478 240.299L644.281 240.657L647.861 232.618C648.023 232.253 648.305 231.954 648.66 231.77L649.385 231.396L640.538 227.431ZM604.731 171.352L600.069 176.63L604.031 180.123L604.731 171.352ZM613.419 174.32L608.373 169.87L607.331 183.028L611.935 187.091L614.59 189.429L615.633 176.269L613.419 174.32ZM625.301 184.808L618.938 179.189L617.895 192.349L625.151 198.752L626.195 185.591L625.301 184.808ZM629.488 188.502L628.446 201.66L635.701 208.063L636.743 194.905L629.488 188.502ZM647.299 204.227L640.045 197.818L639 210.982L646.256 217.386L647.299 204.227ZM650.594 207.125L649.552 220.283L654.021 224.23L656.808 226.688L657.851 213.529L650.594 207.125ZM661.163 216.452L660.425 225.69L667.489 222.035L661.163 216.452ZM676.811 228.17L669.544 224.934L657.974 230.918L654.287 232.823L652.533 233.733L652.23 233.889L650.839 234.607L647.507 242.093L666.79 250.678L676.811 228.17ZM564.577 255.257C564.181 256.145 564.581 257.185 565.469 257.581L645.855 293.371C646.743 293.766 647.783 293.367 648.179 292.479L665.358 253.894L581.756 216.671L564.577 255.257ZM583.188 213.456L588.011 215.603L586.051 207.025L583.188 213.456Z" fill="#FFC107"/>
<path d="M663.222 241.384L666.438 242.815L665.006 246.031L661.79 244.599L663.222 241.384Z" fill="#FFC107"/>
<path d="M668.949 228.522L672.164 229.954L670.732 233.169L667.517 231.737L668.949 228.522Z" fill="#FFC107"/>
<path d="M653.576 237.089L656.791 238.521L655.36 241.736L652.144 240.304L653.576 237.089Z" fill="#FFC107"/>
<path d="M583.892 229.181L654.632 260.677L653.201 263.892L582.46 232.397L583.892 229.181Z" fill="#FFC107"/>
<path d="M648.906 273.539L647.474 276.754L626.574 267.448L622.279 277.095L619.063 275.663L623.358 266.017L600.85 255.996L596.555 265.642L593.34 264.21L597.635 254.564L576.734 245.258L578.166 242.043L648.906 273.539Z" fill="#FFC107"/>
<path d="M498.173 285.84H398.61L386.897 192.134H509.886L498.173 285.84Z" fill="#FFC107"/>
<path d="M542.097 285.84H506.957L501.101 227.274H547.954L542.097 285.84Z" fill="#FFC107"/>
<path d="M545.651 250.294L543.924 267.56L504.432 260.59L502.646 242.706L545.651 250.294Z" fill="#0296E5"/>
<path d="M550.882 215.56H498.173L501.101 203.847H547.954L550.882 215.56Z" fill="#EAEAE8"/>
<path d="M536.24 203.847H530.384V174.564L539.169 156.994H545.025L536.24 177.493V203.847Z" fill="#FBB540"/>
<path d="M439.607 192.134H457.176V285.84H439.607V192.134Z" fill="#CBCBCB"/>
<path d="M424.965 285.84H410.324L404.467 192.134H422.037L424.965 285.84Z" fill="#CBCBCB"/>
<path d="M486.459 285.84H471.818L474.746 192.134H492.316L486.459 285.84Z" fill="#CBCBCB"/>
<path d="M479.034 151.151C479.391 150.258 479.569 149.304 479.557 148.343C479.546 147.381 479.345 146.431 478.966 145.548C478.587 144.664 478.038 143.863 477.35 143.192C476.662 142.52 475.848 141.991 474.956 141.634C475.313 140.741 475.49 139.787 475.479 138.826C475.467 137.865 475.266 136.915 474.887 136.031C474.509 135.148 473.96 134.347 473.272 133.676C472.584 133.004 471.77 132.475 470.877 132.118C469.985 131.761 469.031 131.583 468.069 131.595C467.108 131.607 466.158 131.808 465.275 132.186C464.391 132.565 463.591 133.114 462.919 133.802C462.248 134.49 461.718 135.304 461.361 136.196C459.559 135.475 457.543 135.5 455.759 136.264C453.974 137.029 452.566 138.472 451.845 140.274C451.124 142.077 451.149 144.092 451.914 145.877C452.678 147.662 454.121 149.069 455.923 149.79C456 149.821 456.076 149.841 456.153 149.869C456.151 149.873 456.149 149.876 456.148 149.88C455.427 151.683 455.451 153.698 456.216 155.483C456.981 157.267 458.423 158.675 460.226 159.396C462.029 160.117 464.044 160.093 465.829 159.328C467.613 158.563 469.021 157.121 469.742 155.318C469.742 155.314 469.744 155.31 469.746 155.306C471.53 155.954 473.497 155.883 475.231 155.108C476.964 154.333 478.328 152.914 479.034 151.151Z" fill="#D18D28"/>
<path d="M441.027 143.463C440.319 141.656 438.922 140.203 437.143 139.425C435.365 138.647 433.35 138.607 431.542 139.315C430.834 137.507 429.437 136.054 427.659 135.275C425.88 134.497 423.865 134.458 422.057 135.165C420.248 135.873 418.795 137.269 418.017 139.048C417.239 140.827 417.199 142.842 417.907 144.65C416.099 145.358 414.646 146.754 413.867 148.533C413.089 150.312 413.05 152.327 413.757 154.135C414.465 155.943 415.861 157.396 417.64 158.175C419.419 158.953 421.434 158.993 423.242 158.285C423.318 158.255 423.389 158.217 423.462 158.185C423.462 158.189 423.464 158.193 423.465 158.197C423.816 159.092 424.339 159.91 425.005 160.603C425.672 161.296 426.468 161.851 427.349 162.237C428.229 162.622 429.177 162.83 430.139 162.849C431.1 162.868 432.055 162.697 432.951 162.347C433.846 161.997 434.663 161.473 435.356 160.807C436.05 160.141 436.605 159.345 436.99 158.464C437.375 157.583 437.583 156.635 437.602 155.674C437.621 154.713 437.451 153.757 437.1 152.862C437.1 152.858 437.097 152.855 437.095 152.851C438.841 152.102 440.227 150.705 440.961 148.953C441.695 147.201 441.718 145.232 441.027 143.463V143.463Z" fill="#FBB540"/>
<path d="M408.815 124.803C408.465 123.908 407.942 123.09 407.276 122.397C406.609 121.704 405.813 121.149 404.932 120.764C404.052 120.378 403.104 120.17 402.142 120.151C401.181 120.132 400.226 120.303 399.33 120.653C398.98 119.758 398.457 118.94 397.791 118.247C397.124 117.554 396.328 116.999 395.447 116.614C394.566 116.228 393.618 116.02 392.657 116.001C391.696 115.982 390.74 116.153 389.845 116.503C388.95 116.854 388.132 117.377 387.439 118.043C386.746 118.709 386.191 119.506 385.806 120.386C385.421 121.267 385.212 122.215 385.194 123.176C385.175 124.138 385.345 125.093 385.695 125.988C383.887 126.696 382.434 128.093 381.656 129.872C380.878 131.65 380.838 133.666 381.546 135.474C382.253 137.282 383.65 138.735 385.429 139.513C387.208 140.291 389.223 140.331 391.031 139.623C391.107 139.594 391.177 139.556 391.25 139.524C391.25 139.528 391.253 139.531 391.254 139.536C391.962 141.344 393.358 142.797 395.137 143.575C396.916 144.353 398.931 144.393 400.739 143.685C402.547 142.978 404 141.581 404.779 139.802C405.557 138.023 405.596 136.008 404.889 134.2C404.889 134.196 404.885 134.193 404.884 134.189C406.629 133.441 408.015 132.043 408.749 130.292C409.483 128.54 409.507 126.572 408.815 124.803V124.803Z" fill="#D18D28"/>
<path d="M416.18 174.564C416.18 172.623 415.409 170.761 414.036 169.388C412.663 168.015 410.801 167.243 408.859 167.243C408.859 165.302 408.088 163.44 406.715 162.067C405.342 160.694 403.48 159.923 401.539 159.923C399.597 159.923 397.735 160.694 396.362 162.067C394.989 163.44 394.218 165.302 394.218 167.243C392.276 167.243 390.414 168.015 389.041 169.388C387.669 170.761 386.897 172.623 386.897 174.564C386.897 176.506 387.669 178.368 389.041 179.741C390.414 181.114 392.276 181.885 394.218 181.885C394.3 181.885 394.379 181.875 394.46 181.873V181.885C394.46 183.827 395.231 185.689 396.604 187.062C397.977 188.434 399.839 189.206 401.781 189.206C403.722 189.206 405.584 188.434 406.957 187.062C408.33 185.689 409.101 183.827 409.101 181.885C409.101 181.881 409.101 181.877 409.101 181.873C410.999 181.811 412.799 181.015 414.119 179.651C415.44 178.287 416.179 176.463 416.18 174.564Z" fill="#FBB540"/>
<path d="M445.463 174.564C445.463 172.623 444.692 170.761 443.319 169.388C441.946 168.015 440.084 167.243 438.142 167.243C438.142 165.302 437.371 163.44 435.998 162.067C434.625 160.694 432.763 159.923 430.822 159.923C428.88 159.923 427.018 160.694 425.645 162.067C424.272 163.44 423.501 165.302 423.501 167.243C421.559 167.243 419.697 168.015 418.324 169.388C416.951 170.761 416.18 172.623 416.18 174.564C416.18 176.506 416.951 178.368 418.324 179.741C419.697 181.114 421.559 181.885 423.501 181.885C423.583 181.885 423.662 181.875 423.743 181.873V181.885C423.743 183.827 424.514 185.689 425.887 187.062C427.26 188.434 429.122 189.206 431.064 189.206C433.005 189.206 434.867 188.434 436.24 187.062C437.613 185.689 438.384 183.827 438.384 181.885C438.384 181.881 438.384 181.877 438.384 181.873C440.282 181.811 442.082 181.015 443.402 179.651C444.723 178.287 445.462 176.463 445.463 174.564V174.564Z" fill="#D18D28"/>
<path d="M474.746 174.564C474.746 172.623 473.975 170.761 472.602 169.388C471.229 168.015 469.367 167.243 467.425 167.243C467.425 165.302 466.654 163.44 465.281 162.067C463.908 160.694 462.046 159.923 460.105 159.923C458.163 159.923 456.301 160.694 454.928 162.067C453.555 163.44 452.784 165.302 452.784 167.243C450.842 167.243 448.98 168.015 447.607 169.388C446.234 170.761 445.463 172.623 445.463 174.564C445.463 176.506 446.234 178.368 447.607 179.741C448.98 181.114 450.842 181.885 452.784 181.885C452.866 181.885 452.945 181.875 453.026 181.873V181.885C453.026 183.827 453.797 185.689 455.17 187.062C456.543 188.434 458.405 189.206 460.347 189.206C462.288 189.206 464.15 188.434 465.523 187.062C466.896 185.689 467.667 183.827 467.667 181.885C467.667 181.881 467.667 181.877 467.667 181.873C469.565 181.811 471.365 181.015 472.685 179.651C474.006 178.287 474.745 176.463 474.746 174.564Z" fill="#FBB540"/>
<path d="M504.029 174.564C504.029 172.623 503.258 170.761 501.885 169.388C500.512 168.015 498.65 167.243 496.708 167.243C496.708 165.302 495.937 163.44 494.564 162.067C493.191 160.694 491.329 159.923 489.388 159.923C487.446 159.923 485.584 160.694 484.211 162.067C482.838 163.44 482.067 165.302 482.067 167.243C480.125 167.243 478.263 168.015 476.89 169.388C475.517 170.761 474.746 172.623 474.746 174.564C474.746 176.506 475.517 178.368 476.89 179.741C478.263 181.114 480.125 181.885 482.067 181.885C482.149 181.885 482.228 181.875 482.309 181.873V181.885C482.309 183.827 483.08 185.689 484.453 187.062C485.826 188.434 487.688 189.206 489.63 189.206C491.571 189.206 493.433 188.434 494.806 187.062C496.179 185.689 496.95 183.827 496.95 181.885C496.95 181.881 496.95 181.877 496.95 181.873C498.848 181.811 500.648 181.015 501.968 179.651C503.289 178.287 504.028 176.463 504.029 174.564Z" fill="#D18D28"/>
<path d="M514.987 142.216C515.845 140.474 515.976 138.463 515.352 136.625C514.727 134.786 513.398 133.271 511.656 132.413C512.514 130.672 512.645 128.66 512.021 126.822C511.396 124.983 510.067 123.469 508.325 122.61C506.583 121.752 504.572 121.621 502.734 122.246C500.895 122.87 499.38 124.2 498.522 125.941C496.78 125.083 494.769 124.952 492.931 125.577C491.093 126.201 489.578 127.531 488.719 129.272C487.861 131.014 487.73 133.025 488.355 134.864C488.98 136.702 490.309 138.217 492.051 139.075C492.124 139.112 492.199 139.138 492.273 139.171C492.273 139.175 492.269 139.178 492.267 139.182C491.842 140.044 491.591 140.982 491.529 141.941C491.466 142.9 491.593 143.863 491.902 144.773C492.212 145.683 492.697 146.523 493.331 147.246C493.965 147.969 494.736 148.559 495.598 148.984C496.46 149.409 497.398 149.66 498.357 149.723C499.317 149.785 500.279 149.658 501.189 149.349C502.1 149.04 502.94 148.554 503.663 147.92C504.385 147.286 504.976 146.515 505.401 145.653C505.401 145.649 505.404 145.646 505.405 145.642C507.135 146.426 509.102 146.507 510.89 145.868C512.678 145.228 514.147 143.919 514.987 142.216V142.216Z" fill="#FBB540"/>
<path d="M448.392 262.413C462.947 262.413 474.746 250.614 474.746 236.059C474.746 221.503 462.947 209.704 448.392 209.704C433.836 209.704 422.037 221.503 422.037 236.059C422.037 250.614 433.836 262.413 448.392 262.413Z" fill="#EAEAE8"/>
<path d="M545.651 250.294L543.924 267.56L504.432 260.59L502.646 242.706L545.651 250.294Z" fill="#EAEAE8"/>
<path d="M495.244 215.56H553.81V227.274H495.244V215.56Z" fill="#CBCBCB"/>
<path d="M509.886 180.421H386.897C383.663 180.421 381.041 183.043 381.041 186.277C381.041 189.512 383.663 192.134 386.897 192.134H509.886C513.12 192.134 515.742 189.512 515.742 186.277C515.742 183.043 513.12 180.421 509.886 180.421Z" fill="#EAEAE8"/>
<path d="M530.384 197.991H536.24V203.847H530.384V197.991Z" fill="#D18D28"/>
</svg>
